<svg id="main_svg" xmlns="http://www.w3.org/2000/svg" width="384" height="704"><g id="svg_g_bezier_cells"><path d="M72.0804699786009,19.43876247387971 C75.7230310289935,31.077524947759418 75.7230310289935,31.077524947759418 105.43436839958102,38.129574674210325 C135.14570577016852,45.181624400661235 135.14570577016852,45.181624400661235 143.28041021140996,26.490812200330616 C151.4151146526514,7.800000000000001 151.4151146526514,7.800000000000001 109.92651179042986,7.800000000000001 C68.4379089282083,7.800000000000001 68.4379089282083,7.800000000000001 72.0804699786009,19.43876247387971 Z" fill="#1c2638" fill-opacity="1"/><path d="M342.67743428305744,60.48810877180246 C376.2,113.17621754360492 376.2,113.17621754360492 376.2,60.48810877180246 C376.2,7.799999999999996 376.2,7.799999999999996 342.67743428305744,7.799999999999996 C309.1548685661149,7.799999999999996 309.1548685661149,7.799999999999996 342.67743428305744,60.48810877180246 Z" fill="#1c2638" fill-opacity="1"/><path d="M17.618634592035363,75.49460819291447 C27.437269184070725,75.03034773505004 27.437269184070725,75.03034773505004 44.15502680698479,55.443814495980575 C60.872784429898864,35.85728125691111 60.872784429898864,35.85728125691111 56.48226782146657,21.828640628455553 C52.09175121303428,7.8 52.09175121303428,7.8 29.945875606517138,7.800000000000001 C7.799999999999998,7.800000000000001 7.799999999999998,7.800000000000001 7.799999999999998,41.87943432538945 C7.799999999999998,75.9588686507789 7.799999999999998,75.9588686507789 17.618634592035363,75.49460819291447 Z" fill="#1c2638" fill-opacity="1"/><path d="M161.95533008700187,88.84081884653972 C175.76403896917643,123.28056535314805 175.76403896917643,123.28056535314805 193.70916913950487,118.40585096761825 C211.65429930983333,113.53113658208845 211.65429930983333,113.53113658208845 233.72836053309624,60.665568291044224 C255.80242175635917,7.799999999999999 255.80242175635917,7.799999999999999 212.11549197634162,7.799999999999999 C168.4285621963241,7.8 168.4285621963241,7.8 158.2875917005757,31.100536169965693 C148.14662120482728,54.40107233993139 148.14662120482728,54.40107233993139 161.95533008700187,88.84081884653972 Z" fill="#1c2638" fill-opacity="1"/><path d="M276.08114282420524,132.26085480647993 C324.39115841265897,149.10222378652216 324.39115841265897,149.10222378652216 348.72546392500715,143.20186836279322 C373.0597694373553,137.30151293906428 373.0597694373553,137.30151293906428 331.86239986820317,72.55075646953215 C290.665030299051,7.8000000000000185 290.665030299051,7.8000000000000185 281.686380875404,7.8000000000000185 C272.707731451757,7.800000000000019 272.707731451757,7.800000000000019 250.23942934375427,61.60974291321886 C227.77112723575152,115.4194858264377 227.77112723575152,115.4194858264377 276.08114282420524,132.26085480647993 Z" fill="#1c2638" fill-opacity="1"/><path d="M73.61534720712515,123.97755347764866 C105.96905671987213,165.0920901783216 105.96905671987213,165.0920901783216 132.0006949031148,151.44323224429132 C158.03233308635748,137.79437431026108 158.03233308635748,137.79437431026108 160.16904838506713,134.71372835907766 C162.3057636837768,131.63308240789425 162.3057636837768,131.63308240789425 148.13211618023342,96.28315713528728 C133.95846867669007,60.93323186268031 133.95846867669007,60.93323186268031 103.20020690476935,53.632692381428086 C72.44194513284862,46.332152900175856 72.44194513284862,46.332152900175856 56.8517914136134,64.59758483857578 C41.26163769437817,82.8630167769757 41.26163769437817,82.8630167769757 73.61534720712515,123.97755347764866 Z" fill="#1c2638" fill-opacity="1"/><path d="M50.23500451569386,178.9056278491009 C92.67000903138772,177.30023724060015 92.67000903138772,177.30023724060015 93.39350533644256,176.278552019014 C94.11700164149738,175.25686679742785 94.11700164149738,175.25686679742785 60.8250712775312,132.95005520148857 C27.53314091356502,90.64324360554927 27.53314091356502,90.64324360554927 17.66657045678251,91.10977064399646 C7.799999999999999,91.57629768244365 7.799999999999999,91.57629768244365 7.799999999999999,136.04365807002267 C7.799999999999999,180.51101845760166 7.799999999999999,180.51101845760166 50.23500451569386,178.9056278491009 Z" fill="#1c2638" fill-opacity="1"/><path d="M205.84901589524293,203.91788502443728 C239.16475539311966,263.5763022648212 239.16475539311966,263.5763022648212 246.07036847965392,260.7405414071344 C252.97598156618818,257.90478054944754 252.97598156618818,257.90478054944754 282.62533241528877,209.65191544208778 C312.2746832643893,161.399050334728 312.2746832643893,161.399050334728 264.68491473618417,144.80876689772867 C217.09514620797898,128.21848346072932 217.09514620797898,128.21848346072932 196.4960670597795,133.8141312213918 C175.89698791158003,139.40977898205423 175.89698791158003,139.40977898205423 174.2151321544731,141.8346233830538 C172.5332763973662,144.25946778405338 172.5332763973662,144.25946778405338 205.84901589524293,203.91788502443728 Z" fill="#1c2638" fill-opacity="1"/><path d="M39.317250625505885,270.20043277842734 C70.83450125101177,275.3411642206779 70.83450125101177,275.3411642206779 79.58333719509199,267.049275767753 C88.33217313917218,258.75738731482807 88.33217313917218,258.75738731482807 88.63425219004198,225.90501791181785 C88.93633124091177,193.05264850880764 88.93633124091177,193.05264850880764 48.36816562045588,194.58741332937217 C7.800000000000002,196.1221781499367 7.800000000000002,196.1221781499367 7.8000000000000025,230.59093974305674 C7.800000000000003,265.0597013361768 7.800000000000003,265.0597013361768 39.317250625505885,270.20043277842734 Z" fill="#1c2638" fill-opacity="1"/><path d="M137.9395281770357,275.28931012425994 C171.93418473136776,293.13052667126135 171.93418473136776,293.13052667126135 199.10711177454635,282.814893066418 C226.28003881772491,272.49925946157464 226.28003881772491,272.49925946157464 193.2620914327403,213.37409786520686 C160.24414404775567,154.2489362688391 160.24414404775567,154.2489362688391 134.68761897329608,167.64868382115893 C109.13109389883651,181.04843137347876 109.13109389883651,181.04843137347876 106.85973891630061,184.2559250433423 C104.58838393376472,187.4634187132058 104.58838393376472,187.4634187132058 104.26662777823418,222.45575614523216 C103.94487162270363,257.44809357725853 103.94487162270363,257.44809357725853 137.9395281770357,275.28931012425994 Z" fill="#1c2638" fill-opacity="1"/><path d="M288.34530514710787,267.82343106948366 C306.9152153742447,275.2842750090273 306.9152153742447,275.2842750090273 341.5576076871223,253.1516354757999 C376.19999999999993,231.01899594257253 376.19999999999993,231.01899594257253 376.19999999999993,191.80556191865446 C376.19999999999993,152.5921278947364 376.19999999999993,152.5921278947364 352.5785924356213,158.31962647355834 C328.95718487124265,164.04712505238032 328.95718487124265,164.04712505238032 299.3662898956068,212.2048560911602 C269.775394919971,260.36258712994004 269.775394919971,260.36258712994004 288.34530514710787,267.82343106948366 Z" fill="#1c2638" fill-opacity="1"/><path d="M338.0185499709387,311.30630470259393 C357.0103092405177,336.55427718474016 357.0103092405177,336.55427718474016 366.6051546202589,335.76723393009314 C376.20000000000005,334.9801906754461 376.20000000000005,334.9801906754461 376.20000000000005,292.25559736643675 C376.20000000000005,249.53100405742734 376.20000000000005,249.53100405742734 347.61339535067987,267.7946681389375 C319.02679070135974,286.05833222044765 319.02679070135974,286.05833222044765 338.0185499709387,311.30630470259393 Z" fill="#1c2638" fill-opacity="1"/><path d="M27.897206330848032,369.0329130728354 C47.99441266169607,370.9598196778675 47.99441266169607,370.9598196778675 56.07802100670814,330.5093669126793 C64.16162935172022,290.0589141474911 64.16162935172022,290.0589141474911 35.98081467586011,285.46238376500935 C7.799999999999998,280.86585338252763 7.799999999999998,280.86585338252763 7.799999999999997,323.98592992516546 C7.799999999999996,367.1060064678033 7.799999999999996,367.1060064678033 27.897206330848032,369.0329130728354 Z" fill="#1c2638" fill-opacity="1"/><path d="M251.1498641716014,310.13198608252367 C261.2907216064843,340.5809063882942 261.2907216064843,340.5809063882942 283.0817212154649,356.37568623873506 C304.8727208244454,372.1704660891759 304.8727208244454,372.1704660891759 323.6824753962067,357.68765570371284 C342.492229967968,343.2048453182498 342.492229967968,343.2048453182498 322.64912509250314,316.8250792973853 C302.80602021703834,290.4453132765208 302.80602021703834,290.4453132765208 280.56438942437967,281.5092799691287 C258.32275863172094,272.5732466617367 258.32275863172094,272.5732466617367 249.66588268421972,276.12815621924494 C241.0090067367185,279.68306577675315 241.0090067367185,279.68306577675315 251.1498641716014,310.13198608252367 Z" fill="#1c2638" fill-opacity="1"/><path d="M63.55612725420457,377.9901022739135 C64.42498555775008,378.93753842272065 64.42498555775008,378.93753842272065 104.68397628079273,384.420791516959 C144.94296700383538,389.9040446111974 144.94296700383538,389.9040446111974 153.75915704082993,347.8703746007657 C162.5753470778245,305.836704590334 162.5753470778245,305.836704590334 129.9962902386057,288.73842895290886 C97.4172333993869,271.64015331548364 97.4172333993869,271.64015331548364 88.9874344531897,279.6296679193948 C80.55763550699253,287.61918252330594 80.55763550699253,287.61918252330594 71.6224522288258,332.3309243242062 C62.68726895065905,377.04266612510645 62.68726895065905,377.04266612510645 63.55612725420457,377.9901022739135 Z" fill="#1c2638" fill-opacity="1"/><path d="M166.18795892944536,403.4223636490725 C172.8277498632798,410.5793242578848 172.8277498632798,410.5793242578848 174.57802749846064,410.42106988423006 C176.32830513364152,410.2628155105753 176.32830513364152,410.2628155105753 211.0290792534313,376.74533603365285 C245.7298533732211,343.22785655673044 245.7298533732211,343.22785655673044 236.64914901510474,315.9621499736324 C227.56844465698842,288.69644339053434 227.56844465698842,288.69644339053434 202.87275936407053,298.0716439604786 C178.17707407115267,307.44684453042277 178.17707407115267,307.44684453042277 168.8626210333818,351.8561237853415 C159.54816799561095,396.2654030402602 159.54816799561095,396.2654030402602 166.18795892944536,403.4223636490725 Z" fill="#1c2638" fill-opacity="1"/><path d="M241.80144679668763,428.42792312901594 C288.86397561496466,442.68700094991175 288.86397561496466,442.68700094991175 292.7594124995512,414.083938663982 C296.65484938413783,385.48087637805224 296.65484938413783,385.48087637805224 276.02689160868306,370.5291046523888 C255.39893383322826,355.57733292672543 255.39893383322826,355.57733292672543 225.0689259058194,384.87308911742275 C194.7389179784106,414.1688453081201 194.7389179784106,414.1688453081201 241.80144679668763,428.42792312901594 Z" fill="#1c2638" fill-opacity="1"/><path d="M340.06426038958523,438.5328694373874 C376.20000000000005,429.3896508753146 376.20000000000005,429.3896508753146 376.20000000000005,390.0111181120963 C376.20000000000005,350.632585348878 376.20000000000005,350.632585348878 366.2477232517932,351.4489478824104 C356.29544650358645,352.26531041594274 356.29544650358645,352.26531041594274 334.3027881563859,369.19883815016203 C312.31012980918524,386.13236588438133 312.31012980918524,386.13236588438133 308.1193252941778,416.90422694192074 C303.9285207791704,447.67608799946015 303.9285207791704,447.67608799946015 340.06426038958523,438.5328694373874 Z" fill="#1c2638" fill-opacity="1"/><path d="M22.483116154405696,492.55473058543015 C37.166232308811395,486.3443938304702 37.166232308811395,486.3443938304702 44.732190264263565,437.5696392691565 C52.29814821971573,388.79488470784275 52.29814821971573,388.79488470784275 51.41791582182101,387.8350458138442 C50.5376834239263,386.8752069198456 50.5376834239263,386.8752069198456 29.16884171196315,384.82637677107687 C7.8,382.77754662230814 7.8,382.77754662230814 7.799999999999998,440.7713069813491 C7.799999999999996,498.7650673403901 7.799999999999996,498.7650673403901 22.483116154405696,492.55473058543015 Z" fill="#1c2638" fill-opacity="1"/><path d="M82.59051741950404,500.0227731078356 C112.34278772777574,512.9626568168235 112.34278772777574,512.9626568168235 130.07288408222735,500.25876450701605 C147.80298043667898,487.55487219720857 147.80298043667898,487.55487219720857 154.53939195023753,454.3097462884484 C161.27580346379608,421.06462037968834 161.27580346379608,421.06462037968834 154.27136201794596,413.5146068304317 C147.26692057209584,405.96459328117504 147.26692057209584,405.96459328117504 107.1908338565289,400.5062516153388 C67.11474714096195,395.0479099495026 67.11474714096195,395.0479099495026 59.976497126097144,441.0653996741751 C52.838247111232334,487.08288939884767 52.838247111232334,487.08288939884767 82.59051741950404,500.0227731078356 Z" fill="#1c2638" fill-opacity="1"/><path d="M306.645649207082,502.1246275106229 C307.671967995171,540.9093634037306 307.671967995171,540.9093634037306 313.89733205788355,546.5352865721214 C320.1226961205961,552.1612097405123 320.1226961205961,552.1612097405123 348.16134806029805,560.436931520936 C376.2,568.7126533013596 376.2,568.7126533013596 376.19999999999993,507.09696182135383 C376.19999999999993,445.481270341348 376.19999999999993,445.481270341348 340.90966520949644,454.41058097943153 C305.61933041899294,463.3398916175151 305.61933041899294,463.3398916175151 306.645649207082,502.1246275106229 Z" fill="#1c2638" fill-opacity="1"/><path d="M209.67416551090741,514.7835028532808 C255.7512125938217,541.4056272472039 255.7512125938217,541.4056272472039 273.8634408172156,539.4411030429474 C291.97566904060943,537.4765788386907 291.97566904060943,537.4765788386907 290.9413618177515,498.3899588367599 C289.9070545948936,459.30333883482916 289.9070545948936,459.30333883482916 234.43362185823867,442.4959123270338 C178.96018912158374,425.6884858192384 178.96018912158374,425.6884858192384 177.58281457204822,425.8130235167119 C176.20544002251273,425.9375612141854 176.20544002251273,425.9375612141854 169.90127922525295,457.04946983677155 C163.59711842799317,488.16137845935765 163.59711842799317,488.16137845935765 209.67416551090741,514.7835028532808 Z" fill="#1c2638" fill-opacity="1"/><path d="M122.23759853636223,564.0335745737085 C123.27632451092785,602.2588789837973 123.27632451092785,602.2588789837973 147.91157204350188,606.2457558135475 C172.5468195760759,610.2326326432975 172.5468195760759,610.2326326432975 206.62855989650464,580.4823227350327 C240.71030021693338,550.7320128267678 240.71030021693338,550.7320128267678 198.00133474372734,526.0558787525193 C155.29236927052133,501.3797446782708 155.29236927052133,501.3797446782708 138.24562091615897,513.5940074209452 C121.1988725617966,525.8082701636197 121.1988725617966,525.8082701636197 122.23759853636223,564.0335745737085 Z" fill="#1c2638" fill-opacity="1"/><path d="M57.7782228337416,648.1815772432428 C107.7564456674832,605.4192684513328 107.7564456674832,605.4192684513328 106.69169664661138,566.236311213559 C105.62694762573956,527.0533539757854 105.62694762573956,527.0533539757854 74.89593316097668,513.6877939928653 C44.16491869621381,500.3222340099452 44.16491869621381,500.3222340099452 25.982459348106904,508.01264484628757 C7.8,515.70305568263 7.8,515.70305568263 7.799999999999999,603.3234708588914 C7.799999999999999,690.9438860351529 7.799999999999999,690.9438860351529 57.7782228337416,648.1815772432428 Z" fill="#1c2638" fill-opacity="1"/><path d="M208.40614998558675,658.1277753793275 C231.79637165810627,696.1999999999999 231.79637165810627,696.1999999999999 239.53878715136233,696.1999999999999 C247.2812026446184,696.1999999999999 247.2812026446184,696.1999999999999 277.04123903776406,628.6744617215556 C306.80127543090975,561.1489234431115 306.80127543090975,561.1489234431115 302.06449319364344,556.8682464154217 C297.3277109563772,552.5875693877321 297.3277109563772,552.5875693877321 277.3327513415968,554.7563021158032 C257.3377917268164,556.9250348438743 257.3377917268164,556.9250348438743 221.17686001994184,588.4902928012648 C185.01592831306723,620.0555507586552 185.01592831306723,620.0555507586552 208.40614998558675,658.1277753793275 Z" fill="#1c2638" fill-opacity="1"/><path d="M348.3909910775129,576.7700283444708 C320.5819821550256,568.5620866314831 320.5819821550256,568.5620866314831 292.4555203463915,632.3810433157416 C264.3290585377574,696.2000000000003 264.3290585377574,696.2000000000003 320.26452926887873,696.2000000000005 C376.20000000000005,696.2000000000006 376.20000000000005,696.2000000000006 376.2000000000001,640.5889850287297 C376.20000000000016,584.9779700574586 376.20000000000016,584.9779700574586 348.3909910775129,576.7700283444708 Z" fill="#1c2638" fill-opacity="1"/><path d="M191.8146885264315,660.9231972844128 C170.14187471960994,625.6463945688256 170.14187471960994,625.6463945688256 144.05997462515066,621.425396869291 C117.97807453069136,617.2043991697566 117.97807453069136,617.2043991697566 71.8152286423735,656.7021995848784 C25.652382754055644,696.2 25.652382754055644,696.2 119.56994254365435,696.2 C213.48750233325305,696.2 213.48750233325305,696.2 191.8146885264315,660.9231972844128 Z" fill="#1c2638" fill-opacity="1"/></g></svg>